<?xml version="1.0" encoding="utf-8"?>
<!-- Generator: Adobe Illustrator 25.4.1, SVG Export Plug-In . SVG Version: 6.00 Build 0)  -->
<svg version="1.1" id="Layer_1" xmlns="http://www.w3.org/2000/svg" xmlns:xlink="http://www.w3.org/1999/xlink" x="0px" y="0px"
	 viewBox="0 0 530 91.33" style="enable-background:new 0 0 530 91.33;" xml:space="preserve">
<style type="text/css">
	.st0{fill:#FFFFFF;}
</style>
<g>
	<path class="st0" d="M136.03,33.24H93.58l-1.52,1.21v37.75h11.68V57.96l1.06-1.06h31.23c7.88,0,11.52-2.12,11.52-7.58v-8.64
		C147.55,35.36,143.92,33.24,136.03,33.24 M136.03,47.19c0,2.58-1.67,3.03-5.46,3.03h-25.62l-1.21-1.06v-8.04l1.06-1.06h25.78
		c3.64,0,5.46,0.45,5.46,3.03V47.19L136.03,47.19z"/>
	<polyline class="st0" points="169.09,40.37 179.24,55.23 178.64,56.59 156.2,56.59 150.44,63.72 183.79,63.72 186.22,65.08 
		191.37,72.21 204.87,72.21 175.3,32.79 	"/>
	<polyline class="st0" points="302.97,64.63 302.97,54.01 304.18,52.95 326.78,52.95 326.78,46.28 290.99,46.28 290.99,72.21 
		343.76,72.21 343.76,65.54 304.33,65.54 	"/>
	<rect x="290.99" y="33.24" class="st0" width="53.22" height="7.28"/>
	<path class="st0" d="M231.71,40.22h42.91c-0.61-5.46-4.09-6.97-12.58-6.97h-30.78c-9.7,0-12.74,1.82-12.74,9.25v20.62
		c0,7.28,3.03,9.25,12.74,9.25h30.78c8.64,0,11.98-1.67,12.28-7.28h-42.61l-1.21-1.21V41.13"/>
	<path class="st0" d="M63.25,48.4H32.17l-0.91-1.06v-6.67l0.91-0.76h42l0.61-1.36c-1.36-3.64-5.16-5.46-11.98-5.46H33.53
		c-9.7,0-12.74,1.82-12.74,9.25v4.4c0,7.28,3.03,9.25,12.74,9.25h31.08l0.91,0.91v6.97l-0.76,1.06H29.14l0,0h-9.25
		c0,0-1.06,0.61-1.06,0.76c0.76,5.16,4.25,6.52,12.58,6.52h31.84c9.7,0,12.89-1.82,12.89-9.25v-5.31
		C76.14,50.38,72.95,48.4,63.25,48.4"/>
	<path class="st0" d="M377.72,33.09h-17.59l-0.91,1.82l19.41,14.25c3.64-2.12,7.73-4.25,11.98-6.37"/>
	<path class="st0" d="M393.49,59.78l17.13,12.43h17.59l0.76-1.67L403.5,51.89C400.16,54.47,396.67,57.05,393.49,59.78"/>
	<path class="st0" d="M375.14,72.21h-15.92l-1.36-2.12c10.77-10.46,58.98-55.04,163.76-59.74
		C521.61,10.35,433.82,13.38,375.14,72.21"/>
</g>
</svg>
