<?xml version="1.0" encoding="utf-8"?>
<!-- Generator: Adobe Illustrator 25.4.1, SVG Export Plug-In . SVG Version: 6.00 Build 0)  -->
<svg version="1.1" id="Laag_1" xmlns="http://www.w3.org/2000/svg" xmlns:xlink="http://www.w3.org/1999/xlink" x="0px" y="0px"
	 viewBox="0 0 382.93 75.32" style="enable-background:new 0 0 382.93 75.32;" xml:space="preserve">
<style type="text/css">
	.st0{fill:#FFFFFF;}
</style>
<g>
	<path class="st0" d="M0,58.17V19.11h19.53l9.77,19.53V19.11h19.53v39.06H29.3l-9.77-19.53v19.53H0z"/>
	<path class="st0" d="M70.8,48.4h19.53v9.77H51.27V19.11h39.06v9.77H70.8v4.88h19.53v9.77H70.8V48.4z"/>
	<path class="st0" d="M136.72,19.11V36.2l-9.77,2.44l9.77,2.44v17.09H92.77V19.11H136.72z M112.31,28.87v4.88h4.88v-4.88H112.31z
		 M112.31,48.4h4.88v-4.88h-4.88V48.4z"/>
	<path class="st0" d="M139.16,58.17V19.11h19.53v29.3h4.88v-29.3h19.53v39.06H139.16z"/>
	<path class="st0" d="M185.55,58.17V19.11h19.53v29.3h19.53v9.77H185.55z"/>
	<path class="st0" d="M247.36,53.29l-0.78,4.88h-19.53l9.77-39.06h29.3l9.77,39.06h-19.53l-0.78-4.88H247.36z M254,43.52
		l-2.54-15.87l-2.54,15.87H254z"/>
	<path class="st0" d="M308.28,43.52H274.1v-9.77h34.18V43.52z"/>
	<path class="st0" d="M317.61,0c5.46,0,11.97,2.22,19.53,6.65c7.05,4.1,14.02,9.56,20.93,16.37l8.89-6.99h14.85l-17.6,13.4
		c5.66,6.35,10.12,12.59,13.39,18.71c3.55,6.54,5.33,12.24,5.33,17.1c0,3.18-0.89,5.65-2.66,7.43c-1.77,1.77-4.25,2.66-7.42,2.66
		c-5.37,0-11.77-2.17-19.19-6.52c-6.91-3.97-13.8-9.3-20.66-15.98l-7.4,5.77H310.3l16.31-12.43c-5.73-6.39-10.27-12.68-13.63-18.88
		c-3.59-6.62-5.38-12.38-5.38-17.28c0-3.17,0.88-5.63,2.62-7.38C311.98,0.88,314.44,0,317.61,0z M312.44,11.69
		c0,4.39,1.6,9.54,4.81,15.46c3.02,5.55,7.08,11.2,12.19,16.93l10.16-7.7l-6.15-20.35h14.91l3.29,12.09l6.17-4.81
		c-6.24-6.11-12.51-11.01-18.8-14.7c-6.76-4.01-12.58-6.02-17.47-6.02c-2.89,0-5.13,0.79-6.71,2.38
		C313.23,6.56,312.44,8.79,312.44,11.69z M335.82,50.75c6.11,5.83,12.23,10.5,18.34,14c6.53,3.78,12.18,5.67,16.94,5.67
		c2.89,0,5.13-0.79,6.72-2.38c1.59-1.59,2.38-3.83,2.38-6.72c0-4.25-1.54-9.26-4.62-15.05c-2.85-5.37-6.74-10.87-11.69-16.52
		l-9.04,6.92l7.07,21.91H346.6l-3.85-13.16L335.82,50.75z"/>
</g>
</svg>
